<svg width="16" height="17" viewBox="0 0 16 17" fill="none" xmlns="http://www.w3.org/2000/svg">
<path d="M14.1892 6.16514L10.222 5.58858L8.44859 1.99326C8.40015 1.89483 8.32046 1.81514 8.22203 1.7667C7.97515 1.64483 7.67515 1.74639 7.55171 1.99326L5.77828 5.58858L1.81109 6.16514C1.70171 6.18076 1.60171 6.23233 1.52515 6.31045C1.43259 6.40559 1.38159 6.53358 1.38334 6.6663C1.3851 6.79902 1.43948 6.92561 1.53453 7.01826L4.40484 9.8167L3.72671 13.7683C3.71081 13.8602 3.72098 13.9547 3.75608 14.0412C3.79117 14.1276 3.84978 14.2025 3.92526 14.2573C4.00074 14.3121 4.09007 14.3447 4.18312 14.3513C4.27617 14.358 4.36922 14.3384 4.45171 14.2948L8.00015 12.4292L11.5486 14.2948C11.6455 14.3464 11.758 14.3636 11.8658 14.3448C12.1377 14.298 12.3205 14.0401 12.2736 13.7683L11.5955 9.8167L14.4658 7.01826C14.5439 6.9417 14.5955 6.8417 14.6111 6.73233C14.6533 6.45889 14.4627 6.20576 14.1892 6.16514Z" fill="#FEA250"/>
</svg>
