<svg width="65" height="65" viewBox="0 0 65 65" fill="none" xmlns="http://www.w3.org/2000/svg">
<circle cx="32.5" cy="32.5" r="32.5" fill="#DC7000" fill-opacity="0.09"/>
<g clip-path="url(#clip0_204_272)">
<path d="M47.3522 42.4496L46.6906 39.9805C46.6045 39.659 46.274 39.468 45.9527 39.5544C45.6312 39.6406 45.4405 39.9709 45.5266 40.2923L45.8163 41.3733L41.5885 38.9616V28.9384C41.5885 28.7228 41.4732 28.5235 41.2863 28.4161L32.5507 23.3937V18.621L33.3297 19.4C33.565 19.6353 33.9465 19.6353 34.1818 19.4C34.4171 19.1647 34.4171 18.7832 34.1818 18.5479L32.3742 16.7403C32.1387 16.5038 31.753 16.5086 31.5221 16.7403L29.7145 18.5479C29.4792 18.7831 29.4792 19.1647 29.7145 19.4C29.9498 19.6352 30.3313 19.6352 30.5667 19.4L31.3457 18.621V23.3948L22.6687 28.4169C22.4826 28.5247 22.368 28.7234 22.368 28.9384V38.8642L18.0807 41.3005L18.3708 40.2176C18.4569 39.8961 18.2662 39.5658 17.9447 39.4797C17.6232 39.3934 17.2929 39.5843 17.2068 39.9057L16.5453 42.3754C16.4615 42.6882 16.6488 43.0362 16.9894 43.1181L19.4405 43.7749C19.7645 43.8617 20.093 43.6677 20.1785 43.3489C20.2646 43.0275 20.0739 42.6971 19.7524 42.611L18.7069 42.3308L22.9619 39.9129L31.6804 45.0468C31.867 45.1567 32.0988 45.1581 32.2871 45.0496L34.4973 43.7754C34.7856 43.6092 34.8845 43.2408 34.7184 42.9525C34.5522 42.6643 34.1837 42.5653 33.8954 42.7315L31.9894 43.8303L24.1706 39.2261L31.9102 34.8281L39.799 39.3281L38.5921 40.0239C38.3038 40.1901 38.2049 40.5585 38.371 40.8468C38.5373 41.1352 38.9058 41.2341 39.194 41.0678L41.0118 40.0199L45.1922 42.4046L44.1452 42.6851C43.8238 42.7712 43.633 43.1016 43.7192 43.423C43.8049 43.7429 44.1342 43.9357 44.4571 43.8491L46.8719 43.2021C47.2167 43.1412 47.4447 42.7947 47.3522 42.4496ZM40.3834 38.2741L32.5506 33.806V24.7837L40.3834 29.287V38.2741ZM23.573 29.2859L31.3456 24.7872V33.7627L23.573 38.1795V29.2859Z" fill="#DC7000"/>
<path d="M36.5273 42.4722C36.8601 42.4722 37.1299 42.2025 37.1299 41.8697C37.1299 41.537 36.8601 41.2672 36.5273 41.2672C36.1946 41.2672 35.9248 41.537 35.9248 41.8697C35.9248 42.2025 36.1946 42.4722 36.5273 42.4722Z" fill="#DC7000"/>
</g>
<defs>
<clipPath id="clip0_204_272">
<rect width="30.8475" height="30.8475" fill="white" transform="translate(16.5254 15.4237)"/>
</clipPath>
</defs>
</svg>
